<svg width="126" height="126" viewBox="0 0 126 126" fill="none" xmlns="http://www.w3.org/2000/svg">
<path d="M58 111.906L23.625 91.75C22.1901 90.8723 21.0762 89.7154 20.2833 88.2792C19.4903 86.8431 19.0938 85.2917 19.0938 83.625V43.4688C19.0938 41.8021 19.4903 40.2507 20.2833 38.8145C21.0762 37.3784 22.1901 36.2215 23.625 35.3438L58.1563 14.875C59.6146 14.0417 61.2292 13.625 63 13.625C64.7708 13.625 66.3854 14.0417 67.8438 14.875L102.375 35.3438C103.81 36.2215 104.924 37.3784 105.717 38.8145C106.51 40.2507 106.906 41.8021 106.906 43.4688V83.625C106.906 85.2917 106.496 86.8431 105.676 88.2792C104.855 89.7154 103.703 90.8723 102.219 91.75L67.375 111.906C65.8825 112.74 64.3115 113.156 62.6619 113.156C61.0123 113.156 59.4583 112.74 58 111.906ZM58.3125 101.125V66.125L28.625 49.0938V83.3125L58.3125 101.125ZM67.6875 101.125L97.5313 83.3125V49.0938L67.6875 66.125V101.125ZM0.5 30.0313V9.875C0.5 7.29688 1.41797 5.08984 3.25391 3.25391C5.08984 1.41797 7.29688 0.5 9.875 0.5H30.0313V9.875H9.875V30.0313H0.5ZM30.0313 125.5H9.875C7.29688 125.5 5.08984 124.582 3.25391 122.746C1.41797 120.91 0.5 118.703 0.5 116.125V95.9688H9.875V116.125H30.0313V125.5ZM95.9688 125.5V116.125H116.125V95.9688H125.5V116.125C125.5 118.703 124.582 120.91 122.746 122.746C120.91 124.582 118.703 125.5 116.125 125.5H95.9688ZM116.125 30.0313V9.875H95.9688V0.5H116.125C118.703 0.5 120.91 1.41797 122.746 3.25391C124.582 5.08984 125.5 7.29688 125.5 9.875V30.0313H116.125ZM63 57.6875L92.6875 40.5L63 23.4688L33.3125 40.5L63 57.6875Z" fill="white"/>
</svg>
